<svg width="150" height="45" viewBox="0 0 150 45" xmlns="http://www.w3.org/2000/svg">
<path d="M13.61 11.12H1.47998V23.25H13.61V11.12Z" stroke="#8BD2BD" stroke-width="2" stroke-miterlimit="10"/>
<path d="M36.0499 11.12H23.9199V23.25H36.0499V11.12Z" stroke-width="2" stroke-miterlimit="10"/>
<path d="M58.4801 11.12H46.3501V23.25H58.4801V11.12Z" stroke="#8BD2BD" stroke-width="2" stroke-miterlimit="10"/>
<path d="M80.92 11.12H68.79V23.25H80.92V11.12Z" stroke="#8BD2BD" stroke-width="2" stroke-miterlimit="10"/>
<path d="M103.35 11.12H91.22V23.25H103.35V11.12Z" stroke="#8BD2BD" stroke-width="2" stroke-miterlimit="10"/>
<path d="M125.78 11.12H113.65V23.25H125.78V11.12Z" stroke="#8BD2BD" stroke-width="2" stroke-miterlimit="10"/>
<path d="M148.22 11.12H136.09V23.25H148.22V11.12Z" stroke="#8BD2BD" stroke-width="2" stroke-miterlimit="10"/>
<path d="M13.61 30.91H1.47998V43.04H13.61V30.91Z" stroke="#8BD2BD" stroke-width="2" stroke-miterlimit="10"/>
<path d="M36.0499 30.91H23.9199V43.04H36.0499V30.91Z" stroke="#8BD2BD" stroke-width="2" stroke-miterlimit="10"/>
<path d="M58.4801 30.91H46.3501V43.04H58.4801V30.91Z" stroke="#8BD2BD" stroke-width="2" stroke-miterlimit="10"/>
<path d="M80.92 30.91H68.79V43.04H80.92V30.91Z" stroke="#8BD2BD" stroke-width="2" stroke-miterlimit="10"/>
<path d="M103.35 30.91H91.22V43.04H103.35V30.91Z" stroke="#8BD2BD" stroke-width="2" stroke-miterlimit="10"/>
<path d="M125.78 30.91H113.65V43.04H125.78V30.91Z" stroke="#8BD2BD" stroke-width="2" stroke-miterlimit="10"/>
<path d="M148.22 30.91H136.09V43.04H148.22V30.91Z" stroke="#8BD2BD" stroke-width="2" stroke-miterlimit="10"/>
<path d="M1.47998 1.12H13.61" stroke="#8BD2BD" stroke-width="2" stroke-miterlimit="10" stroke-linecap="square"/>
<path d="M23.9199 1.12H36.0399" stroke="#8BD2BD" stroke-width="2" stroke-miterlimit="10" stroke-linecap="square"/>
</svg>
