<svg width="1024" height="1024" viewBox="0 0 1024 1024" fill="none" xmlns="http://www.w3.org/2000/svg">
<path d="M104.704 338.752C116.706 326.754 132.982 320.014 149.952 320.014C166.923 320.014 183.198 326.754 195.2 338.752L512 655.552L828.8 338.752C840.871 327.094 857.037 320.643 873.818 320.789C890.598 320.935 906.65 327.665 918.516 339.532C930.383 351.398 937.113 367.45 937.259 384.23C937.405 401.011 930.954 417.177 919.296 429.248L557.248 791.296C545.246 803.294 528.971 810.034 512 810.034C495.03 810.034 478.754 803.294 466.752 791.296L104.704 429.248C92.7059 417.246 85.9657 400.971 85.9657 384C85.9657 367.029 92.7059 350.754 104.704 338.752V338.752Z" fill="black"/>
</svg>
