<svg width="27" height="32" viewBox="0 0 27 32" fill="none" xmlns="http://www.w3.org/2000/svg">
<path d="M18.905 23.9059L15.31 27.3789C14.686 28.0039 13.826 28.2639 12.878 28.2639C11.93 28.2639 11.071 28.0039 10.446 27.3789L4.67 21.5669C4.05 20.9419 3.733 20.0299 3.733 19.0819C3.733 18.1299 4.05 17.2699 4.67 16.6499L10.43 10.8059C11.05 10.1869 11.93 9.94687 12.878 9.94687C13.826 9.94687 14.686 10.2069 15.31 10.8319L18.905 14.3049C19.592 14.9929 20.728 14.9679 21.441 14.2529C22.149 13.5399 22.176 12.4049 21.488 11.7169L18.015 8.20587C17.1154 7.31849 15.9861 6.69963 14.754 6.41887L18.041 3.08587C18.729 2.39887 18.708 1.26287 17.994 0.549868C17.28 -0.163132 16.145 -0.185132 15.458 0.497868L1.989 13.9669C0.682 15.2789 0 17.0799 0 19.0799C0 21.0759 0.683 22.9399 1.989 24.2479L7.786 30.0599C9.093 31.3669 10.901 31.9969 12.901 31.9969C14.896 31.9969 16.702 31.3139 18.01 30.0079L21.489 26.4869C22.177 25.8039 22.15 24.6699 21.437 23.9559C20.724 23.2419 19.588 23.2159 18.906 23.9039L18.905 23.9059ZM25.185 17.3479H11.654C10.722 17.3479 9.962 18.1489 9.962 19.1389C9.962 20.1299 10.722 20.9359 11.654 20.9359H25.185C26.118 20.9359 26.878 20.1289 26.878 19.1389C26.878 18.1499 26.118 17.3479 25.185 17.3479Z" fill="#F8F8F8"/>
</svg>
