<svg width="200" height="200" viewBox="0 0 200 200" fill="none" xmlns="http://www.w3.org/2000/svg">
<g clip-path="url(#clip0_4_39)">
<path d="M117 138C118.657 138 120.008 139.344 119.925 140.999C119.384 151.813 115.924 162.3 109.888 171.334C103.295 181.201 93.9246 188.892 82.961 193.433C71.9974 197.974 59.9334 199.162 48.2946 196.847C36.6557 194.532 25.9647 188.818 17.5736 180.426C9.18244 172.035 3.468 161.344 1.15288 149.705C-1.16223 138.067 0.0259702 126.003 4.56723 115.039C9.10849 104.075 16.7988 94.7047 26.6658 88.1118C35.6997 82.0755 46.1868 78.6161 57.0011 78.075C58.6559 77.9922 60 79.3431 60 81V93C60 94.6569 58.6551 95.9888 57.0025 96.1071C49.7509 96.6259 42.7394 99.0202 36.666 103.078C29.7592 107.693 24.3759 114.253 21.1971 121.927C18.0182 129.602 17.1864 138.047 18.807 146.194C20.4276 154.341 24.4277 161.825 30.3015 167.698C36.1753 173.572 43.659 177.572 51.8062 179.193C59.9534 180.814 68.3982 179.982 76.0727 176.803C83.7472 173.624 90.3067 168.241 94.9217 161.334C98.9798 155.261 101.374 148.249 101.893 140.998C102.011 139.345 103.343 138 105 138H117Z" fill="#6C63FF"/>
<path d="M140 117C140 118.657 141.344 120.008 142.999 119.925C153.813 119.384 164.3 115.924 173.334 109.888C183.201 103.295 190.892 93.9246 195.433 82.961C199.974 71.9974 201.162 59.9334 198.847 48.2946C196.532 36.6557 190.818 25.9647 182.426 17.5736C174.035 9.18241 163.344 3.46797 151.705 1.15285C140.067 -1.16226 128.003 0.0259396 117.039 4.5672C106.075 9.10846 96.7047 16.7988 90.1118 26.6658C84.0755 35.6997 80.6161 46.1868 80.075 57.0011C79.9922 58.6558 81.3431 60 83 60L95 60C96.6568 60 97.9888 58.6551 98.1071 57.0024C98.6259 49.7509 101.02 42.7393 105.078 36.666C109.693 29.7592 116.253 24.3759 123.927 21.197C131.602 18.0182 140.047 17.1864 148.194 18.807C156.341 20.4276 163.825 24.4277 169.698 30.3015C175.572 36.1753 179.572 43.659 181.193 51.8062C182.814 59.9534 181.982 68.3982 178.803 76.0727C175.624 83.7472 170.241 90.3067 163.334 94.9217C157.261 98.9798 150.249 101.374 142.998 101.893C141.345 102.011 140 103.343 140 105V117Z" fill="#6C63FF"/>
<circle cx="59.5" cy="138.5" r="32.5" fill="#6C63FF"/>
<circle cx="139.5" cy="60.5" r="32.5" fill="#6C63FF"/>
<rect x="44" y="130.167" width="136" height="37" rx="18.5" transform="rotate(-45 44 130.167)" fill="#6C63FF"/>
<path d="M145 92.5C128.2 96.5 116 110.5 110.5 116C105 121.5 131.8 71.9 171 67.5C169.333 74.1667 161.8 88.5 145 92.5Z" fill="#6C63FF"/>
<path d="M106.928 57.002C102.927 73.8034 88.9257 86.0043 83.4252 91.5048C77.9246 97.0052 127.53 70.2031 131.93 31C125.263 32.6668 110.928 40.2007 106.928 57.002Z" fill="#6C63FF"/>
<path d="M92.2089 144.733C96.578 128.102 110.46 115.335 116 110C121.54 104.665 72.3561 131.045 67 169.978C73.5825 168.492 87.8399 161.363 92.2089 144.733Z" fill="#6C63FF"/>
<path d="M57.142 105.632C73.7094 102.066 86.0366 88.3686 91.5723 83.0058C97.108 77.643 69.5256 126.601 31 129.983C32.8109 123.352 40.5746 109.198 57.142 105.632Z" fill="#6C63FF"/>
</g>
<defs>
<clipPath id="clip0_4_39">
<rect width="200" height="200" fill="white"/>
</clipPath>
</defs>
</svg>
