<svg width="24" height="25" viewBox="0 0 24 25" fill="none" xmlns="http://www.w3.org/2000/svg">
<path d="M23.71 1.29C23.575 1.15567 23.4045 1.06267 23.2185 1.02193C23.0325 0.981183 22.8388 0.994392 22.66 1.06L0.66 9.06C0.470268 9.13197 0.30692 9.25995 0.191651 9.42695C0.076382 9.59396 0.0146475 9.79208 0.0146475 9.995C0.0146475 10.1979 0.076382 10.396 0.191651 10.563C0.30692 10.73 0.470268 10.858 0.66 10.93L9.25 14.36L15.59 8L17 9.41L10.63 15.78L14.07 24.37C14.1441 24.5561 14.2724 24.7156 14.4382 24.8279C14.604 24.9402 14.7997 25.0002 15 25C15.2021 24.9959 15.3982 24.9306 15.5624 24.8127C15.7266 24.6949 15.8513 24.5301 15.92 24.34L23.92 2.34C23.9881 2.16308 24.0046 1.97043 23.9674 1.78452C23.9302 1.59862 23.8409 1.42711 23.71 1.29Z" fill="white"/>
</svg>
