<svg id="visual" viewBox="0 0 900 900" width="900" height="900" xmlns="http://www.w3.org/2000/svg" xmlns:xlink="http://www.w3.org/1999/xlink" version="1.1"><rect x="0" y="0" width="900" height="900" fill="#171321"></rect><path d="M0 850L6.5 848.2C13 846.3 26 842.7 39 841.2C52 839.7 65 840.3 78 840C91 839.7 104 838.3 117.2 838.2C130.3 838 143.7 839 156.8 839.3C170 839.7 183 839.3 196 840.8C209 842.3 222 845.7 235 847C248 848.3 261 847.7 274 847.2C287 846.7 300 846.3 313 845C326 843.7 339 841.3 352 839.2C365 837 378 835 391 833C404 831 417 829 430.2 832C443.3 835 456.7 843 469.8 845.5C483 848 496 845 509 841.2C522 837.3 535 832.7 548 834.2C561 835.7 574 843.3 587 846.8C600 850.3 613 849.7 626 848.8C639 848 652 847 665 847.7C678 848.3 691 850.7 704 848.7C717 846.7 730 840.3 743.2 837.7C756.3 835 769.7 836 782.8 837.3C796 838.7 809 840.3 822 840.3C835 840.3 848 838.7 861 836.3C874 834 887 831 893.5 829.5L900 828L900 901L893.5 901C887 901 874 901 861 901C848 901 835 901 822 901C809 901 796 901 782.8 901C769.7 901 756.3 901 743.2 901C730 901 717 901 704 901C691 901 678 901 665 901C652 901 639 901 626 901C613 901 600 901 587 901C574 901 561 901 548 901C535 901 522 901 509 901C496 901 483 901 469.8 901C456.7 901 443.3 901 430.2 901C417 901 404 901 391 901C378 901 365 901 352 901C339 901 326 901 313 901C300 901 287 901 274 901C261 901 248 901 235 901C222 901 209 901 196 901C183 901 170 901 156.8 901C143.7 901 130.3 901 117.2 901C104 901 91 901 78 901C65 901 52 901 39 901C26 901 13 901 6.5 901L0 901Z" fill="#134a70"></path><path d="M0 838L6.5 839.7C13 841.3 26 844.7 39 848.5C52 852.3 65 856.7 78 857.5C91 858.3 104 855.7 117.2 856C130.3 856.3 143.7 859.7 156.8 858.8C170 858 183 853 196 851.5C209 850 222 852 235 852.2C248 852.3 261 850.7 274 849.3C287 848 300 847 313 846.2C326 845.3 339 844.7 352 847C365 849.3 378 854.7 391 854C404 853.3 417 846.7 430.2 844.7C443.3 842.7 456.7 845.3 469.8 848.3C483 851.3 496 854.7 509 856.7C522 858.7 535 859.3 548 855.8C561 852.3 574 844.7 587 841C600 837.3 613 837.7 626 838.3C639 839 652 840 665 841.7C678 843.3 691 845.7 704 847.8C717 850 730 852 743.2 850.7C756.3 849.3 769.7 844.7 782.8 845C796 845.3 809 850.7 822 852.2C835 853.7 848 851.3 861 850.3C874 849.3 887 849.7 893.5 849.8L900 850L900 901L893.5 901C887 901 874 901 861 901C848 901 835 901 822 901C809 901 796 901 782.8 901C769.7 901 756.3 901 743.2 901C730 901 717 901 704 901C691 901 678 901 665 901C652 901 639 901 626 901C613 901 600 901 587 901C574 901 561 901 548 901C535 901 522 901 509 901C496 901 483 901 469.8 901C456.7 901 443.3 901 430.2 901C417 901 404 901 391 901C378 901 365 901 352 901C339 901 326 901 313 901C300 901 287 901 274 901C261 901 248 901 235 901C222 901 209 901 196 901C183 901 170 901 156.8 901C143.7 901 130.3 901 117.2 901C104 901 91 901 78 901C65 901 52 901 39 901C26 901 13 901 6.5 901L0 901Z" fill="#124366"></path><path d="M0 864L6.5 862.8C13 861.7 26 859.3 39 859.3C52 859.3 65 861.7 78 864C91 866.3 104 868.7 117.2 867.7C130.3 866.7 143.7 862.3 156.8 862.2C170 862 183 866 196 865.2C209 864.3 222 858.7 235 856.5C248 854.3 261 855.7 274 857.7C287 859.7 300 862.3 313 863.8C326 865.3 339 865.7 352 864C365 862.3 378 858.7 391 857.7C404 856.7 417 858.3 430.2 860.7C443.3 863 456.7 866 469.8 866.5C483 867 496 865 509 863.2C522 861.3 535 859.7 548 859.7C561 859.7 574 861.3 587 862.8C600 864.3 613 865.7 626 866.3C639 867 652 867 665 867C678 867 691 867 704 865.7C717 864.3 730 861.7 743.2 861.8C756.3 862 769.7 865 782.8 865.7C796 866.3 809 864.7 822 861.8C835 859 848 855 861 854.8C874 854.7 887 858.3 893.5 860.2L900 862L900 901L893.5 901C887 901 874 901 861 901C848 901 835 901 822 901C809 901 796 901 782.8 901C769.7 901 756.3 901 743.2 901C730 901 717 901 704 901C691 901 678 901 665 901C652 901 639 901 626 901C613 901 600 901 587 901C574 901 561 901 548 901C535 901 522 901 509 901C496 901 483 901 469.8 901C456.7 901 443.3 901 430.2 901C417 901 404 901 391 901C378 901 365 901 352 901C339 901 326 901 313 901C300 901 287 901 274 901C261 901 248 901 235 901C222 901 209 901 196 901C183 901 170 901 156.8 901C143.7 901 130.3 901 117.2 901C104 901 91 901 78 901C65 901 52 901 39 901C26 901 13 901 6.5 901L0 901Z" fill="#103d5d"></path><path d="M0 879L6.5 879C13 879 26 879 39 877.5C52 876 65 873 78 872.8C91 872.7 104 875.3 117.2 875.2C130.3 875 143.7 872 156.8 872.7C170 873.3 183 877.7 196 879.7C209 881.7 222 881.3 235 880.7C248 880 261 879 274 877.5C287 876 300 874 313 873.7C326 873.3 339 874.7 352 873.3C365 872 378 868 391 866.3C404 864.7 417 865.3 430.2 866.8C443.3 868.3 456.7 870.7 469.8 873C483 875.3 496 877.7 509 878.8C522 880 535 880 548 879.2C561 878.3 574 876.7 587 874.8C600 873 613 871 626 871.5C639 872 652 875 665 874.2C678 873.3 691 868.7 704 868.7C717 868.7 730 873.3 743.2 874C756.3 874.7 769.7 871.3 782.8 871.2C796 871 809 874 822 875.5C835 877 848 877 861 877.7C874 878.3 887 879.7 893.5 880.3L900 881L900 901L893.5 901C887 901 874 901 861 901C848 901 835 901 822 901C809 901 796 901 782.8 901C769.7 901 756.3 901 743.2 901C730 901 717 901 704 901C691 901 678 901 665 901C652 901 639 901 626 901C613 901 600 901 587 901C574 901 561 901 548 901C535 901 522 901 509 901C496 901 483 901 469.8 901C456.7 901 443.3 901 430.2 901C417 901 404 901 391 901C378 901 365 901 352 901C339 901 326 901 313 901C300 901 287 901 274 901C261 901 248 901 235 901C222 901 209 901 196 901C183 901 170 901 156.8 901C143.7 901 130.3 901 117.2 901C104 901 91 901 78 901C65 901 52 901 39 901C26 901 13 901 6.5 901L0 901Z" fill="#0e3753"></path><path d="M0 884L6.5 884C13 884 26 884 39 883.7C52 883.3 65 882.7 78 881.8C91 881 104 880 117.2 881.3C130.3 882.7 143.7 886.3 156.8 887.8C170 889.3 183 888.7 196 887.5C209 886.3 222 884.7 235 883C248 881.3 261 879.7 274 879.3C287 879 300 880 313 881.2C326 882.3 339 883.7 352 883.3C365 883 378 881 391 881C404 881 417 883 430.2 883.7C443.3 884.3 456.7 883.7 469.8 884.7C483 885.7 496 888.3 509 889.5C522 890.7 535 890.3 548 890.2C561 890 574 890 587 888.8C600 887.7 613 885.3 626 885.5C639 885.7 652 888.3 665 888.5C678 888.7 691 886.3 704 886C717 885.7 730 887.3 743.2 887.3C756.3 887.3 769.7 885.7 782.8 885.8C796 886 809 888 822 887C835 886 848 882 861 882.2C874 882.3 887 886.7 893.5 888.8L900 891L900 901L893.5 901C887 901 874 901 861 901C848 901 835 901 822 901C809 901 796 901 782.8 901C769.7 901 756.3 901 743.2 901C730 901 717 901 704 901C691 901 678 901 665 901C652 901 639 901 626 901C613 901 600 901 587 901C574 901 561 901 548 901C535 901 522 901 509 901C496 901 483 901 469.8 901C456.7 901 443.3 901 430.2 901C417 901 404 901 391 901C378 901 365 901 352 901C339 901 326 901 313 901C300 901 287 901 274 901C261 901 248 901 235 901C222 901 209 901 196 901C183 901 170 901 156.8 901C143.7 901 130.3 901 117.2 901C104 901 91 901 78 901C65 901 52 901 39 901C26 901 13 901 6.5 901L0 901Z" fill="#0d314a"></path></svg>